<svg width="32" height="32" viewBox="0 0 32 32" fill="none" xmlns="http://www.w3.org/2000/svg">
<rect width="32" height="32" rx="16" fill="#5680E9"/>
<path d="M12.6676 16C12.6676 14.1591 14.1595 12.6664 16.0004 12.6664C17.8412 12.6664 19.334 14.1591 19.334 16C19.334 17.8409 17.8412 19.3336 16.0004 19.3336C14.1595 19.3336 12.6676 17.8409 12.6676 16ZM10.8655 16C10.8655 18.836 13.1644 21.1349 16.0004 21.1349C18.8364 21.1349 21.1352 18.836 21.1352 16C21.1352 13.164 18.8364 10.8651 16.0004 10.8651C13.1644 10.8651 10.8655 13.164 10.8655 16ZM20.1385 10.6615C20.1384 10.8989 20.2087 11.1309 20.3405 11.3283C20.4723 11.5257 20.6596 11.6796 20.8789 11.7705C21.0981 11.8614 21.3394 11.8852 21.5722 11.839C21.805 11.7928 22.0188 11.6786 22.1867 11.5109C22.3546 11.3431 22.469 11.1293 22.5154 10.8966C22.5618 10.6638 22.5381 10.4225 22.4474 10.2032C22.3566 9.98392 22.2029 9.79644 22.0056 9.6645C21.8083 9.53257 21.5763 9.4621 21.339 9.462H21.3385C21.0204 9.46215 20.7153 9.58856 20.4903 9.81347C20.2653 10.0384 20.1388 10.3434 20.1385 10.6615V10.6615ZM11.9604 24.1398C10.9854 24.0954 10.4555 23.933 10.1033 23.7958C9.63645 23.614 9.30333 23.3975 8.95309 23.0478C8.60285 22.698 8.38605 22.3652 8.20509 21.8983C8.06781 21.5463 7.90541 21.0162 7.86109 20.0413C7.81261 18.9872 7.80293 18.6706 7.80293 16.0001C7.80293 13.3296 7.81341 13.0138 7.86109 11.9589C7.90549 10.9839 8.06909 10.4549 8.20509 10.1018C8.38685 9.63496 8.60333 9.30184 8.95309 8.9516C9.30285 8.60136 9.63565 8.38456 10.1033 8.2036C10.4553 8.06632 10.9854 7.90392 11.9604 7.8596C13.0144 7.81112 13.3311 7.80144 16.0004 7.80144C18.6696 7.80144 18.9866 7.81192 20.0416 7.8596C21.0165 7.904 21.5456 8.0676 21.8986 8.2036C22.3655 8.38456 22.6986 8.60184 23.0488 8.9516C23.3991 9.30136 23.6151 9.63496 23.7968 10.1018C23.9341 10.4538 24.0965 10.9839 24.1408 11.9589C24.1893 13.0138 24.199 13.3296 24.199 16.0001C24.199 18.6706 24.1893 18.9863 24.1408 20.0413C24.0964 21.0162 23.9332 21.5462 23.7968 21.8983C23.6151 22.3652 23.3986 22.6983 23.0488 23.0478C22.6991 23.3972 22.3655 23.614 21.8986 23.7958C21.5466 23.933 21.0165 24.0954 20.0416 24.1398C18.9875 24.1882 18.6708 24.1979 16.0004 24.1979C13.3299 24.1979 13.0141 24.1882 11.9604 24.1398V24.1398ZM11.8776 6.06056C10.813 6.10904 10.0856 6.27784 9.45029 6.52504C8.79237 6.78032 8.23541 7.1228 7.67885 7.67848C7.12229 8.23416 6.78069 8.792 6.52541 9.44992C6.27821 10.0856 6.10941 10.8126 6.06093 11.8772C6.01165 12.9434 6.00037 13.2843 6.00037 16C6.00037 18.7157 6.01165 19.0566 6.06093 20.1228C6.10941 21.1874 6.27821 21.9144 6.52541 22.5501C6.78069 23.2076 7.12237 23.7661 7.67885 24.3215C8.23533 24.877 8.79237 25.219 9.45029 25.475C10.0868 25.7222 10.813 25.891 11.8776 25.9394C12.9444 25.9879 13.2847 26 16.0004 26C18.716 26 19.0569 25.9887 20.1232 25.9394C21.1878 25.891 21.9148 25.7222 22.5504 25.475C23.208 25.219 23.7653 24.8772 24.3219 24.3215C24.8784 23.7658 25.2193 23.2076 25.4753 22.5501C25.7225 21.9144 25.8921 21.1874 25.9398 20.1228C25.9883 19.0558 25.9996 18.7157 25.9996 16C25.9996 13.2843 25.9883 12.9434 25.9398 11.8772C25.8913 10.8126 25.7225 10.0852 25.4753 9.44992C25.2193 8.7924 24.8776 8.23504 24.3219 7.67848C23.7662 7.12192 23.208 6.78032 22.5512 6.52504C21.9148 6.27784 21.1877 6.10824 20.124 6.06056C19.0577 6.01208 18.7168 6 16.0012 6C13.2855 6 12.9444 6.01128 11.8776 6.06056Z" fill="white"/>
</svg>
