<svg width="32" height="32" viewBox="0 0 32 32" fill="none" xmlns="http://www.w3.org/2000/svg">
<rect width="32" height="32" rx="16" fill="#5680E9"/>
<path d="M24.8834 23.5502C23.8334 23.5252 22.8084 23.5252 21.7584 23.5502C21.5334 23.5502 21.4834 23.5002 21.4834 23.2752C21.4834 21.4252 21.4834 19.5502 21.4834 17.7002C21.4834 17.2752 21.4584 16.8502 21.3334 16.4502C20.9584 15.1502 19.4584 14.6752 18.3834 15.5502C17.8084 16.0002 17.5834 16.6252 17.5834 17.3752C17.5834 19.1252 17.5834 20.8752 17.5834 22.6252C17.5834 22.8502 17.5584 23.0752 17.5834 23.3252C17.6084 23.5252 17.5084 23.5752 17.3334 23.5502C16.2584 23.5502 15.2084 23.5502 14.1334 23.5502C13.9334 23.5502 13.8834 23.5002 13.8834 23.3002C13.9084 21.7252 13.9084 20.1502 13.9084 18.5502C13.9084 16.6002 13.9084 14.6502 13.8834 12.7252C13.8834 12.5002 13.9334 12.4502 14.1334 12.4502C15.2084 12.4502 16.2584 12.4502 17.3334 12.4502C17.5334 12.4502 17.5834 12.5002 17.5834 12.7002C17.5834 13.1002 17.5834 13.5002 17.5834 13.9752C17.6584 13.9002 17.6834 13.8752 17.7084 13.8502C18.6834 12.4252 20.0584 12.0252 21.6834 12.2752C23.5584 12.5752 24.7584 13.8752 25.0584 15.8752C25.1334 16.3502 25.1584 16.8252 25.1584 17.3002C25.1584 19.3002 25.1584 21.2752 25.1584 23.2752C25.1584 23.4752 25.1084 23.5502 24.8834 23.5502Z" fill="white"/>
<path d="M11.8834 18.0002C11.8834 19.7502 11.8834 21.5002 11.8834 23.2502C11.8834 23.4752 11.8334 23.5502 11.6084 23.5502C10.5584 23.5252 9.50837 23.5502 8.45837 23.5502C8.25837 23.5502 8.20837 23.5002 8.20837 23.3002C8.20837 19.7752 8.20837 16.2252 8.20837 12.7002C8.20837 12.5252 8.25837 12.4502 8.45837 12.4502C9.53337 12.4502 10.6084 12.4502 11.6834 12.4502C11.9084 12.4502 11.9334 12.5252 11.9334 12.7252C11.8834 14.4752 11.8834 16.2252 11.8834 18.0002Z" fill="white"/>
<path d="M12.0584 9.55001C11.8084 10.55 10.7834 11.125 9.60838 10.925C8.35838 10.725 7.65838 9.50001 8.10838 8.30001C8.40838 7.55001 9.13338 7.10001 10.0584 7.12501C11.4584 7.10001 12.3834 8.22501 12.0584 9.55001Z" fill="white"/>
</svg>

