<svg width="32" height="32" viewBox="0 0 32 32" fill="none" xmlns="http://www.w3.org/2000/svg">
<rect width="32" height="32" rx="16" fill="#5680E9"/>
<path d="M23.8416 12.5415C23.8416 12.7165 23.8416 12.8915 23.8416 13.0415C23.8416 18.2165 19.8916 24.1915 12.6916 24.1915C10.4666 24.1915 8.41663 23.5415 6.66663 22.4415C6.96663 22.4665 7.29163 22.4915 7.59163 22.4915C9.41663 22.4915 11.1166 21.8665 12.4666 20.8165C10.7416 20.7915 9.29163 19.6415 8.81663 18.0915C9.06663 18.1415 9.29163 18.1665 9.56663 18.1665C9.91663 18.1665 10.2666 18.1165 10.5916 18.0165C8.79163 17.6665 7.44163 16.0915 7.44163 14.1915C7.44163 14.1665 7.44163 14.1665 7.44163 14.1415C7.96663 14.4415 8.56663 14.6165 9.21663 14.6415C8.16663 13.9415 7.46663 12.7415 7.46663 11.3665C7.46663 10.6415 7.66663 9.9665 7.99163 9.3915C9.91663 11.7665 12.8166 13.3165 16.0666 13.4915C15.9916 13.2165 15.9666 12.8915 15.9666 12.5915C15.9666 10.4165 17.7166 8.6665 19.8916 8.6665C21.0166 8.6665 22.0416 9.1415 22.7416 9.8915C23.6416 9.7165 24.4666 9.3915 25.2416 8.9415C24.9416 9.8665 24.3166 10.6165 23.5166 11.1165C24.3166 11.0165 25.0666 10.8165 25.7666 10.4915C25.2666 11.2915 24.6166 11.9915 23.8416 12.5415Z" fill="white"/>
</svg>
